# xmcd CD database file
#
# Track frame offsets:
#	150
#	13990
#	31216
#	46490
#	59021
#	72259
#	88206
#	100642
#	120127
#	133115
#
# Disc length: 1968 seconds
#
# Revision: 0
# Processed by: cddbd v1.5.1PL0 Copyright (c) Steve Scherf et al.
# Submitted via: CDex 1.51
#
DISCID=8607ae0a
DTITLE=Mike Headrick - Steels On Wheels
DYEAR=2003
DGENRE=Country
TTITLE0=Wheels
TTITLE1=Hickory Wind
TTITLE2=One Step Forward
TTITLE3=Juanita
TTITLE4=Glass Hearts
TTITLE5=Brass Buttons
TTITLE6=Desert Rose
TTITLE7=Sin City
TTITLE8=One Hundred Years Form Now
TTITLE9=Devil In Disguise
EXTD=YEAR: 2003
EXTT0=
EXTT1=
EXTT2=
EXTT3=
EXTT4=
EXTT5=
EXTT6=
EXTT7=
EXTT8=
EXTT9=
PLAYORDER=
